<svg id="Layer_1" data-name="Layer 1" xmlns="http://www.w3.org/2000/svg" viewBox="0 0 149 140"><defs><style>.cls-1{fill:#fff;}</style></defs><title>fflamingo-logo-white-short</title><path class="cls-1" d="M116.42,116.57a21.67,21.67,0,0,1-7.5-1.19,17.23,17.23,0,0,1-5.57-3.25,13.56,13.56,0,0,1-4.71-10.41V47.59a30.07,30.07,0,0,0-.46-5.17,14.78,14.78,0,0,0-1.72-4.84A10.86,10.86,0,0,0,93,33.93a11.85,11.85,0,0,0-11.14-.13,10.89,10.89,0,0,0-3.58,3.52,15.07,15.07,0,0,0-2,5,27.15,27.15,0,0,0-.6,5.71v6.1H87.23V67.76H75.69v47.76H57.91V67.76H40.8v47.76H23V67.76H14V54.09h9V49.44a35.05,35.05,0,0,1,1.66-11,25.48,25.48,0,0,1,4.78-8.69A21.39,21.39,0,0,1,37,24.11a23.82,23.82,0,0,1,10-2,35,35,0,0,1,8.76,1.06A60.83,60.83,0,0,1,63.88,26a23.24,23.24,0,0,1,9.62-6.43A38.61,38.61,0,0,1,87,17.34q15.12,0,22.29,7.16t7.16,18.84V92.83a11.69,11.69,0,0,0,.33,2.72,7.21,7.21,0,0,0,1.13,2.52,6.57,6.57,0,0,0,2,1.86,5.48,5.48,0,0,0,2.92.73,12.79,12.79,0,0,0,2.52-.27c.88-.17,1.7-.37,2.45-.59s1.39-.42,1.92-.6a5.63,5.63,0,0,1,.93-.26L133,113.26a8.34,8.34,0,0,1-1.59.66,40,40,0,0,1-3.85,1.13q-2.39.6-5.31,1.06A37,37,0,0,1,116.42,116.57ZM57.91,54.09V47.32c0-.44,0-1.06.07-1.86s.09-1.64.13-2.52a17.6,17.6,0,0,1,.27-2.39A6.24,6.24,0,0,1,58.84,39a13,13,0,0,0-4.11-1.4,26.18,26.18,0,0,0-4-.33q-5.17,0-7.56,3.38a13.78,13.78,0,0,0-2.39,8.16v5.31Z"/></svg>